<?xml version="1.0" ?><!DOCTYPE svg  PUBLIC '-//W3C//DTD SVG 1.1//EN'  'http://www.w3.org/Graphics/SVG/1.1/DTD/svg11.dtd'><svg enable-background="new 0 0 64 64" height="64px" id="Layer_1" version="1.1" viewBox="0 0 64 64" width="64px" xml:space="preserve" xmlns="http://www.w3.org/2000/svg" xmlns:xlink="http://www.w3.org/1999/xlink"><path d="M62.423,12.849c-0.636-0.532-1.583-0.447-2.112,0.189L31.147,47.921l-8.516-6.699l21.952-26.26  c0.532-0.635,0.447-1.582-0.188-2.113c-0.636-0.532-1.583-0.447-2.112,0.189L13.122,47.92l-9.655-7.595  c-0.652-0.515-1.594-0.399-2.106,0.251c-0.512,0.651-0.399,1.595,0.252,2.106l10.8,8.495c0.089,0.07,0.189,0.109,0.287,0.156  c0.051,0.024,0.096,0.063,0.148,0.08c0.16,0.056,0.326,0.085,0.492,0.085c0.109,0,0.218-0.013,0.325-0.036  c0.034-0.008,0.066-0.023,0.1-0.033c0.071-0.021,0.143-0.041,0.21-0.072c0.041-0.019,0.077-0.047,0.116-0.069  c0.057-0.033,0.115-0.063,0.167-0.104c0.042-0.032,0.077-0.073,0.116-0.11c0.039-0.038,0.082-0.069,0.117-0.112l6.217-7.437  l9.73,7.654c0.089,0.07,0.189,0.109,0.287,0.156c0.051,0.024,0.096,0.063,0.148,0.08c0.16,0.056,0.326,0.085,0.492,0.085  c0.109,0,0.218-0.013,0.325-0.036c0.034-0.007,0.066-0.023,0.1-0.033c0.071-0.021,0.143-0.041,0.211-0.072  c0.04-0.019,0.075-0.046,0.113-0.067c0.058-0.034,0.116-0.064,0.17-0.106c0.04-0.03,0.073-0.069,0.11-0.104  c0.041-0.039,0.086-0.073,0.124-0.118l30.096-36C63.144,14.327,63.059,13.38,62.423,12.849z"/></svg>